<svg xmlns="http://www.w3.org/2000/svg" width="147" height="36" viewBox="0 0 147 36">
    <defs>
        <linearGradient id="a" x1="0%" x2="115.047%" y1="0%" y2="115.27%">
            <stop offset="0%" stop-color="#E35C67"/>
            <stop offset="100%" stop-color="#A293FF"/>
        </linearGradient>
        <linearGradient id="b" x1="-8.363%" x2="151.553%" y1="70.287%" y2="35.535%">
            <stop offset="0%" stop-color="#E35C67"/>
            <stop offset="100%" stop-color="#A293FF"/>
        </linearGradient>
    </defs>
    <g fill="none" fill-rule="evenodd">
        <path fill="url(#a)" d="M54 24.935V8.87h4.622l4.507 11.122L67.591 8.87h4.599v16.065h-3.913V15.3l-3.592 9.635h-3.157l-3.615-9.657v9.657H54zm26.633-9.818c-1.282 0-2.266.779-2.494 2.197h4.896c0-1.396-1.098-2.197-2.402-2.197zm6.109 5.584c-.618 2.495-2.883 4.417-6.064 4.417-3.752 0-6.452-2.517-6.452-6.568 0-4.05 2.654-6.568 6.452-6.568 3.73 0 6.361 2.472 6.361 6.362 0 .366-.023.756-.069 1.145h-8.854c.137 1.67 1.167 2.448 2.425 2.448 1.098 0 1.716-.549 2.036-1.236h4.165zm2.356 4.234V8h3.913v16.935h-3.913zm19.243-6.385c0 4.051-2.93 6.568-6.682 6.568-3.752 0-6.589-2.517-6.589-6.568 0-4.05 2.906-6.568 6.635-6.568 3.753 0 6.636 2.518 6.636 6.568zm-9.29 0c0 2.151 1.19 3.181 2.608 3.181 1.396 0 2.7-1.03 2.7-3.18 0-2.175-1.28-3.182-2.654-3.182-1.418 0-2.654 1.007-2.654 3.181zm10.594-.023c0-4.027 2.494-6.545 5.628-6.545 1.693 0 3.158.778 3.936 1.945V8h3.912v16.935h-3.912v-1.83c-.71 1.167-2.06 2.013-3.936 2.013-3.134 0-5.628-2.563-5.628-6.59zm9.564.023c0-2.037-1.305-3.158-2.792-3.158-1.464 0-2.791 1.099-2.791 3.135 0 2.037 1.327 3.181 2.791 3.181 1.487 0 2.792-1.12 2.792-3.158zm12.63 1.602l2.928-7.987H139L130.992 31h-4.21l2.929-6.5-5.194-12.335h4.37l2.951 7.987z"/>
        <ellipse cx="22" cy="17.5" stroke="url(#b)" stroke-width="4" rx="14" ry="14.5"/>
        <path stroke="url(#a)" stroke-width="4" d="M13 28.818c.279-.681 3.408-18.13 7.227-16.76 3.607 1.295-.397 10.825 3.644 10.947 3.978.12.884-11.096 4.886-10.946 4.763.178 8.229 24.906 15.05 14.296 2.154-3.35 3.02-11.577 3.168-13.509.434-5.682-4.886-5.561-5.955-3.702-.802 1.395-1.601 7.31 5.504 7.31"/>
    </g>
</svg>
