<?xml version="1.0" standalone="no"?>
<!DOCTYPE svg PUBLIC "-//W3C//DTD SVG 20010904//EN"
 "http://www.w3.org/TR/2001/REC-SVG-20010904/DTD/svg10.dtd">
<svg version="1.0" xmlns="http://www.w3.org/2000/svg"
 width="147.000000pt" height="36.000000pt" viewBox="0 0 147.000000 36.000000"
 preserveAspectRatio="xMidYMid meet">

<g transform="translate(0.000000,36.000000) scale(0.100000,-0.100000)"
fill="#000000" stroke="none">
<path d="M295 348 c-31 -89 -94 -325 -90 -336 3 -7 12 -12 21 -10 12 2 30 48
66 168 27 90 46 170 44 177 -7 17 -35 17 -41 1z"/>
<path d="M98 244 c-21 -30 -38 -59 -38 -64 0 -16 75 -119 84 -116 5 1 14 9 20
18 7 12 3 25 -17 51 -15 20 -27 41 -27 47 0 6 12 27 27 47 20 26 24 39 17 51
-18 28 -28 23 -66 -34z"/>
<path d="M382 288 c-17 -17 -15 -25 13 -62 31 -41 31 -51 -2 -94 -25 -34 -24
-61 3 -68 9 -3 84 100 84 116 0 11 -73 119 -80 120 -4 0 -11 -5 -18 -12z"/>
<path d="M510 240 c0 -5 7 -10 15 -10 12 0 15 -13 15 -60 0 -47 3 -60 15 -60
12 0 15 13 15 60 0 33 4 60 10 60 6 0 10 5 10 10 0 6 -18 10 -40 10 -22 0 -40
-4 -40 -10z"/>
<path d="M953 243 c-20 -8 -17 -119 3 -127 38 -15 64 11 64 64 0 53 -28 79
-67 63z m37 -63 c0 -21 -4 -42 -10 -45 -6 -4 -10 13 -10 45 0 32 4 49 10 45 6
-3 10 -24 10 -45z"/>
<path d="M1130 180 c0 -56 3 -70 15 -70 12 0 15 14 15 70 0 56 -3 70 -15 70
-12 0 -15 -14 -15 -70z"/>
<path d="M1180 240 c0 -5 7 -10 15 -10 8 0 15 5 15 10 0 6 -7 10 -15 10 -8 0
-15 -4 -15 -10z"/>
<path d="M601 216 c-7 -8 -11 -31 -9 -52 4 -44 28 -65 56 -48 23 15 28 44 8
44 -9 0 -16 -7 -16 -15 0 -8 -4 -15 -10 -15 -5 0 -10 9 -10 20 0 15 7 20 25
20 17 0 25 5 25 18 0 38 -46 56 -69 28z m39 -16 c0 -5 -4 -10 -10 -10 -5 0
-10 5 -10 10 0 6 5 10 10 10 6 0 10 -4 10 -10z"/>
<path d="M685 170 c0 -63 10 -78 22 -32 l7 27 6 -24 c11 -48 26 -32 25 29 0
60 -14 76 -25 29 l-6 -24 -7 28 c-12 45 -22 30 -22 -33z"/>
<path d="M764 193 c3 -21 6 -48 6 -61 0 -18 5 -23 22 -20 19 2 24 12 31 57 11
81 -7 89 -22 10 l-8 -44 -8 48 c-4 26 -12 47 -17 47 -7 0 -8 -15 -4 -37z"/>
<path d="M840 169 c0 -46 3 -59 15 -59 11 0 15 12 15 50 0 28 5 50 10 50 6 0
10 -22 10 -50 0 -38 4 -50 15 -50 13 0 15 11 13 57 l-3 57 -37 3 -38 2 0 -60z"/>
<path d="M1030 169 c0 -46 3 -59 15 -59 11 0 15 12 15 50 0 28 5 50 10 50 6 0
10 -22 10 -50 0 -38 4 -50 15 -50 13 0 15 11 13 57 l-3 57 -37 3 -38 2 0 -60z"/>
<path d="M1230 170 c0 -46 3 -60 14 -60 11 0 16 15 19 53 l3 52 2 -52 c2 -40
6 -53 17 -53 13 0 15 11 13 57 -3 57 -3 58 -35 60 l-33 3 0 -60z"/>
<path d="M1331 216 c-7 -8 -11 -31 -9 -52 4 -44 28 -65 56 -48 23 15 28 44 8
44 -9 0 -16 -7 -16 -15 0 -8 -4 -15 -10 -15 -5 0 -10 9 -10 20 0 15 7 20 25
20 29 0 33 21 9 44 -19 20 -38 20 -53 2z m39 -16 c0 -5 -4 -10 -10 -10 -5 0
-10 5 -10 10 0 6 5 10 10 10 6 0 10 -4 10 -10z"/>
<path d="M1180 165 c0 -42 3 -55 15 -55 12 0 15 13 15 55 0 42 -3 55 -15 55
-12 0 -15 -13 -15 -55z"/>
</g>
</svg>
